<svg xmlns="http://www.w3.org/2000/svg" width="116mm" height="43.29mm" viewBox="0 0 328.82 122.7"><defs><clipPath id="a"><path fill="none" d="M133.05 0h62.72v62.72h-62.72z"/></clipPath><clipPath id="b"><path fill="none" d="M0 0h328.82v122.7H0z"/></clipPath></defs><g clip-path="url(#a)" fill="#ee7911"><path d="M172.05 18.22a11.25 11.25 0 1 0 11.24 11.24 11.24 11.24 0 0 0-11.24-11.24m0 21a9.72 9.72 0 1 1 9.72-9.72 9.72 9.72 0 0 1-9.72 9.72M158.69 13.59a4.93 4.93 0 1 1-4.93-4.93 4.93 4.93 0 0 1 4.93 4.93M148.83 26.75a4.93 4.93 0 1 1-4.93-4.93 4.93 4.93 0 0 1 4.93 4.93M152.08 42.19a4.93 4.93 0 1 1-4.93-4.93 4.93 4.93 0 0 1 4.93 4.93M163.62 52.05a4.93 4.93 0 1 1-4.93-4.93 4.93 4.93 0 0 1 4.93 4.93"/><path d="M146.91 25.03h15.48v1.73h-15.48zM158.76 51.295l7.292-13.655 1.526.814-7.291 13.656zM148.825 40.683l13.499-7.578.847 1.509-13.499 7.578zM151.762 13.797l1.135-1.306 11.69 10.147-1.135 1.307z"/><path d="M164.41 0a31.36 31.36 0 0 0-31.36 31.36c0 .89 0 1.77.12 2.65l1.34.09c.66 8.7 7.74 19.53 17 24.22-.16.42-.34.89-.52 1.38a31.34 31.34 0 0 0 39.69-11.23c-.5-.34-1-.71-1.37-1a40.26 40.26 0 0 0 4.37-11.84c.59 0 1.21-.08 1.8-.11a28.73 28.73 0 0 0 .29-4.17A31.36 31.36 0 0 0 164.41 0m0 58.65a27.3 27.3 0 1 1 27.3-27.29 27.29 27.29 0 0 1-27.3 27.29"/></g><path d="M173.91 91.69V122h27.78v-3.15h-24V91.69zm57.35 0l-13.88 14.83-13.89-14.83h-5.05l17 17.68V122h3.79v-12.63l17-17.68zm9.54 0v3.16H256V122h3.78V94.85h15.15v-3.16zM280.39 122h3.79V91.69h-3.79zm40.68-30.3l-12.79 11.87-13.23-11.88h-5.37l16 14.32-17.22 16h5.36l14.59-13.53L323.45 122h5.37L311 106l15.42-14.32z" fill="#ee7911"/><g clip-path="url(#b)"><path d="M138.6 111.89l10.08-17.69 10 17.69zM164.44 122h4l-17.23-30.3h-5.44L128.46 122h4.39l4-6.94h23.71zm-66.63 0h3.83l18-27.36V122h3.79V91.69h-6.24L99.5 118.21 81.85 91.69h-6.1V122h3.79V94.22zm-27.11 0v-3.15H44.19v-10.74h25.25V105H44.19V94.85H70.7v-3.16H40.4V122zm-55.55-17c-1.68 0-3.13 0-4.35-.11a22.36 22.36 0 0 1-3.09-.36 8.08 8.08 0 0 1-2-.65 3.35 3.35 0 0 1-1.19-1 3.13 3.13 0 0 1-.56-1.35 9.37 9.37 0 0 1-.14-1.76 5.73 5.73 0 0 1 .55-2.66 3.91 3.91 0 0 1 2-1.7 13.47 13.47 0 0 1 3.87-.9 62 62 0 0 1 6.23-.26h3.73c1.89 0 3.49 0 4.77.13a9.51 9.51 0 0 1 3.12.63 3.22 3.22 0 0 1 1.7 1.51 6.21 6.21 0 0 1 .51 2.78h3.79a12.89 12.89 0 0 0-.24-2.59A6 6 0 0 0 33 94.6a5.65 5.65 0 0 0-1.6-1.6 9.7 9.7 0 0 0-2.56-1.1 20.47 20.47 0 0 0-3.67-.65c-1.42-.14-3.08-.21-5-.21h-3.76q-3.46 0-6 .26a26.06 26.06 0 0 0-4.41.78 10.59 10.59 0 0 0-3 1.25A6.48 6.48 0 0 0 1.16 95a5.69 5.69 0 0 0-.91 2.14 12.15 12.15 0 0 0-.25 2.6 17.23 17.23 0 0 0 .16 2.46 5.69 5.69 0 0 0 .68 2.06 5.17 5.17 0 0 0 1.53 1.65 8.71 8.71 0 0 0 2.68 1.2 24.46 24.46 0 0 0 4.15.74 59.15 59.15 0 0 0 6 .26h5.21a39.1 39.1 0 0 1 5.11.26 8.18 8.18 0 0 1 3 .91 3.16 3.16 0 0 1 1.42 1.72 8.47 8.47 0 0 1 .36 2.68 6.42 6.42 0 0 1-.53 2.73 4.1 4.1 0 0 1-1.84 1.82 10.77 10.77 0 0 1-3.49 1 39.6 39.6 0 0 1-5.5.32h-5.05c-1.9 0-3.48 0-4.77-.13a9.68 9.68 0 0 1-3.1-.64 3.27 3.27 0 0 1-1.7-1.54 6.4 6.4 0 0 1-.51-2.82H0A12.89 12.89 0 0 0 .26 117a5.54 5.54 0 0 0 .84 2.09 5.67 5.67 0 0 0 1.6 1.6 9.17 9.17 0 0 0 2.55 1.13 22.14 22.14 0 0 0 3.67.66c1.42.14 3.07.21 5 .21h5.05a46.64 46.64 0 0 0 5.51-.28 21.13 21.13 0 0 0 4-.84 10.14 10.14 0 0 0 2.76-1.33 6.57 6.57 0 0 0 1.76-1.78 6.48 6.48 0 0 0 .88-2.21 12.55 12.55 0 0 0 .25-2.58 20.61 20.61 0 0 0-.15-2.58 6.42 6.42 0 0 0-.64-2.15 5.52 5.52 0 0 0-1.4-1.71 7.63 7.63 0 0 0-2.48-1.23 18.8 18.8 0 0 0-3.76-.76 47.59 47.59 0 0 0-5.34-.26z" fill="#034167"/></g></svg>